ply
format ascii 1.0
element vertex 145
property float x
property float y
property float z
element face 133
property list uchar int vertex_indices
end_header
0.4901 1.3640 0.5716
0.5158 1.3706 0.5388
0.4170 1.3942 0.5683
0.5167 1.3933 0.4896
0.4930 1.4134 0.4643
0.4221 1.4201 0.4649
0.3646 1.4288 0.4898
0.3626 1.4168 0.5674
0.4929 1.3622 0.5744
0.5193 1.3691 0.5394
0.4176 1.3935 0.5708
0.5206 1.3926 0.4871
0.4959 1.4134 0.4622
0.4231 1.4203 0.4599
0.3651 1.4293 0.4896
0.2834 1.4438 0.4905
0.3613 1.4168 0.5700
0.3350 1.4244 0.5655
0.3192 1.4311 0.5550
0.3033 1.4396 0.5201
0.3373 1.4340 0.4908
0.3142 1.4382 0.4907
0.4914 1.3424 0.5744
0.5176 1.3492 0.5395
0.4172 1.3736 0.5708
0.5196 1.3727 0.4872
0.4959 1.3935 0.4622
0.4231 1.4004 0.4599
0.3651 1.4094 0.4896
0.3374 1.4141 0.4908
0.3613 1.3970 0.5699
0.3350 1.4045 0.5653
0.3193 1.4112 0.5533
0.3036 1.4197 0.5202
0.2841 1.4240 0.4909
0.3146 1.4183 0.4909
0.4883 1.4057 0.4903
0.4692 1.4174 0.4781
0.4688 1.3802 0.5575
0.4888 1.3844 0.5356
0.4130 1.4026 0.5580
0.4223 1.4225 0.4746
0.3726 1.4292 0.4990
0.3711 1.4200 0.5585
0.2869 1.4431 0.4956
0.2941 1.4219 0.5055
0.2889 1.4428 0.4906
0.2993 1.4211 0.4909
0.4650 1.4178 0.4767
0.4639 1.3813 0.5606
0.4820 1.3667 0.5717
0.4847 1.3650 0.5745
0.4832 1.3451 0.5745
0.5182 1.3722 0.4894
0.5192 1.3920 0.4895
0.5154 1.3928 0.4919
0.4884 1.4015 0.4996
0.4684 1.4151 0.4846
0.4650 1.4170 0.4799
0.4226 1.4221 0.4780
0.3726 1.4290 0.5004
0.2873 1.4430 0.4962
0.2943 1.4218 0.5058
0.4617 1.4168 0.4572
0.4598 1.4168 0.4604
0.4617 1.3970 0.4572
0.3657 1.4327 0.4906
0.3380 1.4374 0.4915
0.3402 1.4369 0.4933
0.3652 1.4322 0.4899
0.3622 1.4203 0.5704
0.3359 1.4278 0.5659
0.3634 1.4201 0.5684
0.3379 1.4274 0.5641
0.3201 1.4345 0.5555
0.3224 1.4340 0.5543
0.3718 1.4233 0.5596
0.3522 1.4289 0.5563
0.3733 1.4325 0.5009
0.3542 1.4360 0.5027
0.3541 1.4363 0.5008
0.3732 1.4327 0.4989
0.3399 1.4340 0.5470
0.3370 1.4392 0.5026
0.3140 1.4436 0.5019
0.3279 1.4405 0.5227
0.3178 1.4409 0.4930
0.3368 1.4394 0.5009
0.3071 1.4423 0.5211
0.3043 1.4431 0.5202
0.2885 1.4463 0.4938
0.2882 1.4465 0.4961
0.3149 1.4417 0.4911
0.2881 1.4464 0.4931
0.3136 1.4436 0.5009
0.2841 1.4473 0.4906
0.2878 1.4466 0.4956
0.2896 1.4463 0.4908
0.3712 1.4204 0.5587
0.3627 1.4172 0.5676
0.3614 1.4173 0.5701
0.3351 1.4248 0.5655
0.3193 1.4315 0.5551
0.3035 1.4401 0.5201
0.2875 1.4435 0.4962
0.2870 1.4436 0.4956
0.2835 1.4443 0.4906
0.2890 1.4433 0.4906
0.3143 1.4387 0.4908
0.3374 1.4345 0.4909
0.3652 1.4298 0.4898
0.3647 1.4293 0.4898
0.3727 1.4297 0.4990
0.3727 1.4295 0.5005
0.3717 1.4227 0.5594
0.3632 1.4195 0.5683
0.3620 1.4197 0.5704
0.3358 1.4272 0.5658
0.3200 1.4339 0.5554
0.3041 1.4425 0.5202
0.2881 1.4459 0.4961
0.2876 1.4460 0.4956
0.2840 1.4467 0.4906
0.2895 1.4457 0.4908
0.3148 1.4411 0.4910
0.3378 1.4368 0.4914
0.3656 1.4321 0.4905
0.3651 1.4316 0.4899
0.3731 1.4321 0.4990
0.3732 1.4319 0.5009
0.3641 1.4096 0.4896
0.3641 1.4295 0.4896
0.3642 1.4299 0.4897
0.3646 1.4323 0.4904
0.3647 1.4329 0.4906
0.3643 1.4324 0.4900
0.3725 1.4328 0.4990
0.3726 1.4326 0.5010
0.3711 1.4235 0.5595
0.3624 1.4204 0.5683
0.3612 1.4206 0.5702
0.3611 1.4200 0.5702
0.3604 1.4176 0.5699
0.3603 1.4171 0.5699
0.3603 1.3972 0.5697
4 8 9 1 0
4 51 8 0 50
4 9 54 55 1
4 66 134 135 69
4 16 10 2 7
4 140 70 72 139
4 74 71 73 75
4 59 60 43 40
4 138 76 78 137
4 9 8 22 23
4 8 51 52 22
4 54 9 23 53
4 131 14 28 130
4 10 16 30 24
4 16 143 144 30
4 17 18 32 31
4 0 1 39 38
4 1 55 56 39
4 50 0 38 49
4 7 2 40 43
4 139 72 76 138
4 69 135 136 81
4 75 73 77 82
4 79 83 82 77
4 83 84 85 82
4 68 86 87 80
4 35 21 20 29
4 85 88 75 82
4 88 89 74 75
4 90 91 89 88
4 67 92 86 68
4 18 19 33 32
4 19 61 62 33
4 46 47 34 15
4 86 93 94 87
4 84 90 88 85
4 95 96 93 97
4 34 45 44 15
4 97 93 86 92
4 47 46 21 35
4 2 50 49 40
4 10 51 50 2
4 52 51 10 24
4 11 54 53 25
4 55 54 11 3
4 56 55 3 36
4 137 78 81 136
4 80 87 83 79
4 87 94 84 83
4 94 93 90 84
4 93 96 91 90
4 62 61 44 45
4 3 11 12 4
4 64 63 13 5
4 5 13 14 6
4 39 56 57 38
4 49 38 57 58
4 26 12 11 25
4 63 65 27 13
4 28 14 13 27
4 36 3 4 37
4 48 64 5 41
4 41 5 6 42
4 40 49 58 59
4 36 37 57 56
4 58 57 37 48
4 59 58 48 41
4 59 41 42 60
4 64 48 37 4
4 63 64 4 12
4 65 63 12 26
4 14 131 132 110
4 6 14 110 111
4 143 16 100 142
4 16 7 99 100
4 18 17 101 102
4 43 60 113 98
4 7 43 98 99
4 42 6 111 112
4 19 18 102 103
4 61 19 103 104
4 20 21 108 109
4 15 44 105 106
4 46 15 106 107
4 21 46 107 108
4 60 42 112 113
4 44 61 104 105
4 99 98 114 115
4 100 99 115 116
4 142 100 116 141
4 102 101 117 118
4 103 102 118 119
4 104 103 119 120
4 105 104 120 121
4 106 105 121 122
4 107 106 122 123
4 108 107 123 124
4 109 108 124 125
4 110 132 133 126
4 111 110 126 127
4 112 111 127 128
4 113 112 128 129
4 98 113 129 114
4 115 114 76 72
4 116 115 72 70
4 141 116 70 140
4 118 117 71 74
4 119 118 74 89
4 120 119 89 91
4 121 120 91 96
4 122 121 96 95
4 123 122 95 97
4 124 123 97 92
4 125 124 92 67
4 126 133 134 66
4 127 126 66 69
4 128 127 69 81
4 129 128 81 78
4 114 129 78 76
4 20 131 130 29
4 132 131 20 109
4 133 132 109 125
4 134 133 125 67
4 135 134 67 68
4 136 135 68 80
4 79 137 136 80
4 77 138 137 79
4 73 139 138 77
4 71 140 139 73
4 117 141 140 71
4 101 142 141 117
4 17 143 142 101
4 144 143 17 31
