# Gmsh OBJ export
v 49.2 1 213.75
v 49.2 0 213.75
v 45 1 217.95
v 45 0 217.95
v 49.2 1 168.75
v 49.2 0 168.75
v 45 1 172.95
v 45 0 172.95
v 49.2 1 258.75
v 49.2 0 258.75
v 45 1 262.95
v 45 0 262.95
v 49.2 1 303.75
v 49.2 0 303.75
v 45 1 307.95
v 45 0 307.95
v 49.2 1 348.75
v 49.2 0 348.75
v 45 1 352.95
v 45 0 352.95
v 49.2 1 393.75
v 49.2 0 393.75
v 45 1 397.95
v 45 0 397.95
v 49.2 1 438.75
v 49.2 0 438.75
v 45 1 442.95
v 45 0 442.95
v 49.2 1 483.75
v 49.2 0 483.75
v 45 1 487.95
v 45 0 487.95
v 49.2 1 528.75
v 49.2 0 528.75
v 45 1 532.95
v 45 0 532.95
v 49.2 1 573.75
v 49.2 0 573.75
v 45 1 577.95
v 45 0 577.95
v 49.2 1 618.75
v 49.2 0 618.75
v 45 1 622.95
v 45 0 622.95
v 49.2 1 663.75
v 49.2 0 663.75
v 45 1 667.95
v 45 0 667.95
v 49.2 1 708.75
v 49.2 0 708.75
v 45 1 712.95
v 45 0 712.95
v 49.2 1 753.75
v 49.2 0 753.75
v 45 1 757.95
v 45 0 757.95
v 49.2 1 798.75
v 49.2 0 798.75
v 45 1 802.95
v 45 0 802.95
v 49.2 1 843.75
v 49.2 0 843.75
v 45 1 847.95
v 45 0 847.95
v 49.2 1 888.75
v 49.2 0 888.75
v 45 1 892.95
v 45 0 892.95
v 49.2 1 933.75
v 49.2 0 933.75
v 45 1 937.95
v 45 0 937.95
v 49.2 1 978.75
v 49.2 0 978.75
v 45 1 982.95
v 45 0 982.95
v 49.2 1 1023.75
v 49.2 0 1023.75
v 45 1 1027.95
v 45 0 1027.95
v 40.8 0 1001.25
v 40.8 1 1001.25
v 40.8 1 1023.75
v 40.8 0 1023.75
v 49.2 0 1001.25
v 49.2 1 1001.25
v 40.8 0 956.25
v 40.8 1 956.25
v 40.8 1 978.75
v 40.8 0 978.75
v 49.2 0 956.25
v 49.2 1 956.25
v 40.8 0 911.25
v 40.8 1 911.25
v 40.8 1 933.75
v 40.8 0 933.75
v 49.2 0 911.25
v 49.2 1 911.25
v 40.8 0 866.25
v 40.8 1 866.25
v 40.8 1 888.75
v 40.8 0 888.75
v 49.2 0 866.25
v 49.2 1 866.25
v 40.8 0 821.25
v 40.8 1 821.25
v 40.8 1 843.75
v 40.8 0 843.75
v 49.2 0 821.25
v 49.2 1 821.25
v 40.8 0 776.25
v 40.8 1 776.25
v 40.8 1 798.75
v 40.8 0 798.75
v 49.2 0 776.25
v 49.2 1 776.25
v 40.8 0 731.25
v 40.8 1 731.25
v 40.8 1 753.75
v 40.8 0 753.75
v 49.2 0 731.25
v 49.2 1 731.25
v 40.8 0 686.25
v 40.8 1 686.25
v 40.8 1 708.75
v 40.8 0 708.75
v 49.2 0 686.25
v 49.2 1 686.25
v 40.8 0 641.25
v 40.8 1 641.25
v 40.8 1 663.75
v 40.8 0 663.75
v 49.2 0 641.25
v 49.2 1 641.25
v 40.8 0 596.25
v 40.8 1 596.25
v 40.8 1 618.75
v 40.8 0 618.75
v 49.2 0 596.25
v 49.2 1 596.25
v 40.8 0 551.25
v 40.8 1 551.25
v 40.8 1 573.75
v 40.8 0 573.75
v 49.2 0 551.25
v 49.2 1 551.25
v 40.8 0 506.25
v 40.8 1 506.25
v 40.8 1 528.75
v 40.8 0 528.75
v 49.2 0 506.25
v 49.2 1 506.25
v 40.8 0 461.25
v 40.8 1 461.25
v 40.8 1 483.75
v 40.8 0 483.75
v 49.2 0 461.25
v 49.2 1 461.25
v 40.8 0 416.25
v 40.8 1 416.25
v 40.8 1 438.75
v 40.8 0 438.75
v 49.2 0 416.25
v 49.2 1 416.25
v 40.8 0 371.25
v 40.8 1 371.25
v 40.8 1 393.75
v 40.8 0 393.75
v 49.2 0 371.25
v 49.2 1 371.25
v 40.8 0 326.25
v 40.8 1 326.25
v 40.8 1 348.75
v 40.8 0 348.75
v 49.2 0 326.25
v 49.2 1 326.25
v 40.8 0 281.25
v 40.8 1 281.25
v 40.8 1 303.75
v 40.8 0 303.75
v 49.2 0 281.25
v 49.2 1 281.25
v 40.8 0 236.25
v 40.8 1 236.25
v 40.8 1 258.75
v 40.8 0 258.75
v 49.2 0 236.25
v 49.2 1 236.25
v 49.2 1 191.25
v 40.8 1 213.75
v 40.8 1 191.25
v 56.7 1 135
v 33.3 1 135
v 33.3 1 1035
v 56.7 1 1035
v 40.8 1 146.25
v 40.8 1 168.75
v 49.2 1 146.25
v 40.8 0 191.25
v 40.8 0 213.75
v 49.2 0 191.25
v 33.3 0 135
v 56.7 0 135
v 56.7 0 1035
v 33.3 0 1035
v 49.2 0 146.25
v 40.8 0 146.25
v 40.8 0 168.75
v 32.5 1.8 1035
v 32.5 1.8 135
v 32.5 5.7 135
v 32.5 5.7 1035
v 30.7 7.5 135
v 30.7 7.5 1035
v 27.5 7.5 135
v 27.5 7.5 1035
v 27.5 6.5 135
v 27.5 6.5 1035
v 30.7 6.5 135
v 30.7 6.5 1035
v 31.5 5.7 1035
v 31.5 5.7 135
v 31.5 1.8 135
v 31.5 1.8 1035
v 58.5 1.8 135
v 58.5 1.8 1035
v 58.5 5.7 135
v 58.5 5.7 1035
v 59.3 6.5 1035
v 59.3 6.5 135
v 62.5 6.5 135
v 62.5 6.5 1035
v 62.5 7.5 135
v 62.5 7.5 1035
v 59.3 7.5 135
v 59.3 7.5 1035
v 57.5 5.7 135
v 57.5 5.7 1035
v 57.5 1.8 135
v 57.5 1.8 1035
v 47.9698484809835 1 216.7198484809835
v 47.96984848098349 0 216.7198484809835
v 47.9698484809835 1 171.7198484809835
v 47.96984848098349 0 171.7198484809835
v 47.9698484809835 1 261.7198484809835
v 47.96984848098349 0 261.7198484809835
v 47.9698484809835 1 306.7198484809835
v 47.96984848098349 0 306.7198484809835
v 47.9698484809835 1 351.7198484809835
v 47.96984848098349 0 351.7198484809835
v 47.9698484809835 1 396.7198484809835
v 47.96984848098349 0 396.7198484809835
v 47.9698484809835 1 441.7198484809835
v 47.96984848098349 0 441.7198484809835
v 47.9698484809835 1 486.7198484809835
v 47.96984848098349 0 486.7198484809835
v 47.9698484809835 1 531.7198484809835
v 47.96984848098349 0 531.7198484809835
v 47.9698484809835 1 576.7198484809835
v 47.96984848098349 0 576.7198484809835
v 47.9698484809835 1 621.7198484809835
v 47.96984848098349 0 621.7198484809835
v 47.9698484809835 1 666.7198484809835
v 47.96984848098349 0 666.7198484809835
v 47.9698484809835 1 711.7198484809835
v 47.96984848098349 0 711.7198484809835
v 47.9698484809835 1 756.7198484809835
v 47.96984848098349 0 756.7198484809835
v 47.9698484809835 1 801.7198484809835
v 47.96984848098349 0 801.7198484809835
v 47.9698484809835 1 846.7198484809835
v 47.96984848098349 0 846.7198484809835
v 47.9698484809835 1 891.7198484809835
v 47.96984848098349 0 891.7198484809835
v 47.9698484809835 1 936.7198484809835
v 47.96984848098349 0 936.7198484809835
v 47.9698484809835 1 981.7198484809835
v 47.96984848098349 0 981.7198484809835
v 47.9698484809835 1 1026.719848480984
v 47.96984848098349 0 1026.719848480984
v 47.10000000000001 0 997.6126933041054
v 42.90000000000001 0 997.6126933041054
v 47.10000000000001 1 997.6126933041054
v 42.90000000000001 1 997.6126933041054
v 42.0301515190165 1 1026.719848480984
v 42.0301515190165 0 1026.719848480984
v 47.10000000000001 0 952.6126933041054
v 42.90000000000001 0 952.6126933041054
v 47.10000000000001 1 952.6126933041054
v 42.90000000000001 1 952.6126933041054
v 42.0301515190165 1 981.7198484809835
v 42.0301515190165 0 981.7198484809835
v 47.10000000000001 0 907.6126933041054
v 42.90000000000001 0 907.6126933041054
v 47.10000000000001 1 907.6126933041054
v 42.90000000000001 1 907.6126933041054
v 42.0301515190165 1 936.7198484809835
v 42.0301515190165 0 936.7198484809835
v 47.10000000000001 0 862.6126933041054
v 42.90000000000001 0 862.6126933041054
v 47.10000000000001 1 862.6126933041054
v 42.90000000000001 1 862.6126933041054
v 42.0301515190165 1 891.7198484809835
v 42.0301515190165 0 891.7198484809835
v 47.10000000000001 0 817.6126933041054
v 42.90000000000001 0 817.6126933041054
v 47.10000000000001 1 817.6126933041054
v 42.90000000000001 1 817.6126933041054
v 42.0301515190165 1 846.7198484809835
v 42.0301515190165 0 846.7198484809835
v 47.10000000000001 0 772.6126933041054
v 42.90000000000001 0 772.6126933041054
v 47.10000000000001 1 772.6126933041054
v 42.90000000000001 1 772.6126933041054
v 42.0301515190165 1 801.7198484809835
v 42.0301515190165 0 801.7198484809835
v 47.10000000000001 0 727.6126933041054
v 42.90000000000001 0 727.6126933041054
v 47.10000000000001 1 727.6126933041054
v 42.90000000000001 1 727.6126933041054
v 42.0301515190165 1 756.7198484809835
v 42.0301515190165 0 756.7198484809835
v 47.10000000000001 0 682.6126933041054
v 42.90000000000001 0 682.6126933041054
v 47.10000000000001 1 682.6126933041054
v 42.90000000000001 1 682.6126933041054
v 42.0301515190165 1 711.7198484809835
v 42.0301515190165 0 711.7198484809835
v 47.10000000000001 0 637.6126933041054
v 42.90000000000001 0 637.6126933041054
v 47.10000000000001 1 637.6126933041054
v 42.90000000000001 1 637.6126933041054
v 42.0301515190165 1 666.7198484809835
v 42.0301515190165 0 666.7198484809835
v 47.10000000000001 0 592.6126933041054
v 42.90000000000001 0 592.6126933041054
v 47.10000000000001 1 592.6126933041054
v 42.90000000000001 1 592.6126933041054
v 42.0301515190165 1 621.7198484809835
v 42.0301515190165 0 621.7198484809835
v 47.10000000000001 0 547.6126933041054
v 42.90000000000001 0 547.6126933041054
v 47.10000000000001 1 547.6126933041054
v 42.90000000000001 1 547.6126933041054
v 42.0301515190165 1 576.7198484809835
v 42.0301515190165 0 576.7198484809835
v 47.10000000000001 0 502.6126933041053
v 42.90000000000001 0 502.6126933041053
v 47.10000000000001 1 502.6126933041053
v 42.90000000000001 1 502.6126933041053
v 42.0301515190165 1 531.7198484809835
v 42.0301515190165 0 531.7198484809835
v 47.10000000000001 0 457.6126933041053
v 42.90000000000001 0 457.6126933041053
v 47.10000000000001 1 457.6126933041053
v 42.90000000000001 1 457.6126933041053
v 42.0301515190165 1 486.7198484809835
v 42.0301515190165 0 486.7198484809835
v 47.10000000000001 0 412.6126933041053
v 42.90000000000001 0 412.6126933041053
v 47.10000000000001 1 412.6126933041053
v 42.90000000000001 1 412.6126933041053
v 42.0301515190165 1 441.7198484809835
v 42.0301515190165 0 441.7198484809835
v 47.10000000000001 0 367.6126933041053
v 42.90000000000001 0 367.6126933041053
v 47.10000000000001 1 367.6126933041053
v 42.90000000000001 1 367.6126933041053
v 42.0301515190165 1 396.7198484809835
v 42.0301515190165 0 396.7198484809835
v 47.10000000000001 0 322.6126933041053
v 42.90000000000001 0 322.6126933041053
v 47.10000000000001 1 322.6126933041053
v 42.90000000000001 1 322.6126933041053
v 42.0301515190165 1 351.7198484809835
v 42.0301515190165 0 351.7198484809835
v 47.10000000000001 0 277.6126933041053
v 42.90000000000001 0 277.6126933041053
v 47.10000000000001 1 277.6126933041053
v 42.90000000000001 1 277.6126933041053
v 42.0301515190165 1 306.7198484809835
v 42.0301515190165 0 306.7198484809835
v 47.10000000000001 0 232.6126933041054
v 42.90000000000001 0 232.6126933041054
v 47.10000000000001 1 232.6126933041054
v 42.90000000000001 1 232.6126933041054
v 42.0301515190165 1 261.7198484809835
v 42.0301515190165 0 261.7198484809835
v 42.0301515190165 1 216.7198484809835
v 47.10000000000001 1 187.6126933041054
v 42.90000000000001 1 187.6126933041054
v 33.3 1 944.9999999999998
v 33.3 1 854.9999999999995
v 33.3 1 764.9999999999992
v 33.3 1 674.9999999999989
v 33.3 1 584.9999999999991
v 33.3 1 494.9999999999993
v 33.3 1 404.9999999999994
v 33.3 1 314.9999999999997
v 33.3 1 224.9999999999999
v 56.7 1 944.9999999999998
v 56.7 1 854.9999999999995
v 56.7 1 764.9999999999992
v 56.7 1 674.9999999999989
v 56.7 1 584.9999999999991
v 56.7 1 494.9999999999993
v 56.7 1 404.9999999999994
v 56.7 1 314.9999999999997
v 56.7 1 224.9999999999999
v 47.10000000000001 1 142.6126933041054
v 42.90000000000001 1 142.6126933041054
v 42.0301515190165 1 171.7198484809835
v 42.0301515190165 0 216.7198484809835
v 47.10000000000001 0 187.6126933041054
v 42.90000000000001 0 187.6126933041054
v 56.7 0 944.9999999999998
v 56.7 0 854.9999999999995
v 56.7 0 764.9999999999992
v 56.7 0 674.9999999999989
v 56.7 0 584.9999999999991
v 56.7 0 494.9999999999993
v 56.7 0 404.9999999999994
v 56.7 0 314.9999999999997
v 56.7 0 224.9999999999999
v 33.3 0 944.9999999999998
v 33.3 0 854.9999999999995
v 33.3 0 764.9999999999992
v 33.3 0 674.9999999999989
v 33.3 0 584.9999999999991
v 33.3 0 494.9999999999993
v 33.3 0 404.9999999999994
v 33.3 0 314.9999999999997
v 33.3 0 224.9999999999999
v 47.10000000000001 0 142.6126933041054
v 42.90000000000001 0 142.6126933041054
v 42.0301515190165 0 171.7198484809835
v 32.73431457505076 1.234314575050762 1035
v 32.5 1.8 944.9999999999998
v 32.5 1.8 854.9999999999995
v 32.5 1.8 764.9999999999992
v 32.5 1.8 674.9999999999989
v 32.5 1.8 584.9999999999991
v 32.5 1.8 494.9999999999993
v 32.5 1.8 404.9999999999994
v 32.5 1.8 314.9999999999997
v 32.5 1.8 224.9999999999999
v 32.73431457505076 1.234314575050762 135
v 32.5 5.7 944.9999999999998
v 32.5 5.7 854.9999999999995
v 32.5 5.7 764.9999999999992
v 32.5 5.7 674.9999999999989
v 32.5 5.7 584.9999999999991
v 32.5 5.7 494.9999999999993
v 32.5 5.7 404.9999999999994
v 32.5 5.7 314.9999999999997
v 32.5 5.7 224.9999999999999
v 31.97279220613579 6.972792206135785 135
v 30.7 7.5 944.9999999999998
v 30.7 7.5 854.9999999999995
v 30.7 7.5 764.9999999999992
v 30.7 7.5 674.9999999999989
v 30.7 7.5 584.9999999999991
v 30.7 7.5 494.9999999999993
v 30.7 7.5 404.9999999999994
v 30.7 7.5 314.9999999999997
v 30.7 7.5 224.9999999999999
v 31.97279220613579 6.972792206135785 1035
v 27.5 7.5 944.9999999999998
v 27.5 7.5 854.9999999999995
v 27.5 7.5 764.9999999999992
v 27.5 7.5 674.9999999999989
v 27.5 7.5 584.9999999999991
v 27.5 7.5 494.9999999999993
v 27.5 7.5 404.9999999999994
v 27.5 7.5 314.9999999999997
v 27.5 7.5 224.9999999999999
v 27.5 6.5 944.9999999999998
v 27.5 6.5 854.9999999999995
v 27.5 6.5 764.9999999999992
v 27.5 6.5 674.9999999999989
v 27.5 6.5 584.9999999999991
v 27.5 6.5 494.9999999999993
v 27.5 6.5 404.9999999999994
v 27.5 6.5 314.9999999999997
v 27.5 6.5 224.9999999999999
v 30.7 6.5 944.9999999999998
v 30.7 6.5 854.9999999999995
v 30.7 6.5 764.9999999999992
v 30.7 6.5 674.9999999999989
v 30.7 6.5 584.9999999999991
v 30.7 6.5 494.9999999999993
v 30.7 6.5 404.9999999999994
v 30.7 6.5 314.9999999999997
v 30.7 6.5 224.9999999999999
v 31.26568542494924 6.265685424949238 1035
v 31.5 5.7 944.9999999999998
v 31.5 5.7 854.9999999999995
v 31.5 5.7 764.9999999999992
v 31.5 5.7 674.9999999999989
v 31.5 5.7 584.9999999999991
v 31.5 5.7 494.9999999999993
v 31.5 5.7 404.9999999999994
v 31.5 5.7 314.9999999999997
v 31.5 5.7 224.9999999999999
v 31.26568542494924 6.265685424949238 135
v 31.5 1.8 944.9999999999998
v 31.5 1.8 854.9999999999995
v 31.5 1.8 764.9999999999992
v 31.5 1.8 674.9999999999989
v 31.5 1.8 584.9999999999991
v 31.5 1.8 494.9999999999993
v 31.5 1.8 404.9999999999994
v 31.5 1.8 314.9999999999997
v 31.5 1.8 224.9999999999999
v 32.02720779386421 0.5272077938642155 135
v 32.02720779386421 0.5272077938642155 1035
v 57.97279220613579 0.5272077938642177 135
v 58.5 1.8 944.9999999999998
v 58.5 1.8 854.9999999999995
v 58.5 1.8 764.9999999999992
v 58.5 1.8 674.9999999999989
v 58.5 1.8 584.9999999999991
v 58.5 1.8 494.9999999999993
v 58.5 1.8 404.9999999999994
v 58.5 1.8 314.9999999999997
v 58.5 1.8 224.9999999999999
v 57.97279220613579 0.5272077938642177 1035
v 58.5 5.7 944.9999999999998
v 58.5 5.7 854.9999999999995
v 58.5 5.7 764.9999999999992
v 58.5 5.7 674.9999999999989
v 58.5 5.7 584.9999999999991
v 58.5 5.7 494.9999999999993
v 58.5 5.7 404.9999999999994
v 58.5 5.7 314.9999999999997
v 58.5 5.7 224.9999999999999
v 58.73431457505076 6.265685424949238 1035
v 59.3 6.5 944.9999999999998
v 59.3 6.5 854.9999999999995
v 59.3 6.5 764.9999999999992
v 59.3 6.5 674.9999999999989
v 59.3 6.5 584.9999999999991
v 59.3 6.5 494.9999999999993
v 59.3 6.5 404.9999999999994
v 59.3 6.5 314.9999999999997
v 59.3 6.5 224.9999999999999
v 58.73431457505076 6.265685424949238 135
v 62.5 6.5 944.9999999999998
v 62.5 6.5 854.9999999999995
v 62.5 6.5 764.9999999999992
v 62.5 6.5 674.9999999999989
v 62.5 6.5 584.9999999999991
v 62.5 6.5 494.9999999999993
v 62.5 6.5 404.9999999999994
v 62.5 6.5 314.9999999999997
v 62.5 6.5 224.9999999999999
v 62.5 7.5 944.9999999999998
v 62.5 7.5 854.9999999999995
v 62.5 7.5 764.9999999999992
v 62.5 7.5 674.9999999999989
v 62.5 7.5 584.9999999999991
v 62.5 7.5 494.9999999999993
v 62.5 7.5 404.9999999999994
v 62.5 7.5 314.9999999999997
v 62.5 7.5 224.9999999999999
v 59.3 7.5 944.9999999999998
v 59.3 7.5 854.9999999999995
v 59.3 7.5 764.9999999999992
v 59.3 7.5 674.9999999999989
v 59.3 7.5 584.9999999999991
v 59.3 7.5 494.9999999999993
v 59.3 7.5 404.9999999999994
v 59.3 7.5 314.9999999999997
v 59.3 7.5 224.9999999999999
v 58.02720779386421 6.972792206135782 135
v 57.5 5.7 944.9999999999998
v 57.5 5.7 854.9999999999995
v 57.5 5.7 764.9999999999992
v 57.5 5.7 674.9999999999989
v 57.5 5.7 584.9999999999991
v 57.5 5.7 494.9999999999993
v 57.5 5.7 404.9999999999994
v 57.5 5.7 314.9999999999997
v 57.5 5.7 224.9999999999999
v 58.02720779386421 6.972792206135782 1035
v 57.5 1.8 944.9999999999998
v 57.5 1.8 854.9999999999995
v 57.5 1.8 764.9999999999992
v 57.5 1.8 674.9999999999989
v 57.5 1.8 584.9999999999991
v 57.5 1.8 494.9999999999993
v 57.5 1.8 404.9999999999994
v 57.5 1.8 314.9999999999997
v 57.5 1.8 224.9999999999999
v 57.26568542494924 1.234314575050762 1035
v 57.26568542494924 1.234314575050762 135
v 45 1 539.9379795409428
v 45.0000000000001 1 809.9379795409427
v 45 1 899.9379795409427
v 45 1 989.9379795409427
v 45 1 179.9379795409427
v 45 1 269.9379795409428
v 45 1 449.9379795409428
v 45 1 719.9379795409427
v 44.99999999999994 1 359.9379795409427
v 44.99999999999997 1 629.9379795409427
v 45.00000000000001 0 809.9379795409427
v 45.00000000000001 0 899.9379795409427
v 45.00000000000001 0 989.9379795409427
v 45.00000000000001 0 179.9379795409427
v 45.00000000000001 0 719.9379795409427
v 45 0 269.9379795409427
v 45.00000000000007 0 359.9379795409428
v 45.00000000000003 0 449.9379795409428
v 45.00000000000003 0 539.9379795409427
v 45.00000000000003 0 629.9379795409427
f 241 1 2
f 242 241 2
f 4 3 241
f 4 241 242
f 243 5 6
f 244 243 6
f 8 7 244
f 7 243 244
f 245 9 10
f 246 245 10
f 11 245 12
f 12 245 246
f 248 13 14
f 247 13 248
f 16 15 248
f 15 247 248
f 249 17 18
f 249 18 250
f 20 19 250
f 19 249 250
f 251 21 22
f 251 22 252
f 23 251 24
f 24 251 252
f 253 25 26
f 253 26 254
f 27 254 28
f 27 253 254
f 256 29 30
f 255 29 256
f 32 31 256
f 31 255 256
f 257 33 34
f 257 34 258
f 36 35 257
f 36 257 258
f 260 37 38
f 260 259 37
f 39 260 40
f 39 259 260
f 261 41 42
f 262 261 42
f 43 262 44
f 43 261 262
f 264 45 46
f 264 263 45
f 48 47 263
f 48 263 264
f 265 49 50
f 266 265 50
f 52 51 266
f 51 265 266
f 267 53 54
f 267 54 268
f 55 267 56
f 56 267 268
f 270 57 58
f 269 57 270
f 60 59 270
f 59 269 270
f 271 61 62
f 272 271 62
f 64 63 271
f 64 271 272
f 274 65 66
f 273 65 274
f 67 274 68
f 67 273 274
f 275 69 70
f 276 275 70
f 72 71 276
f 71 275 276
f 278 73 74
f 277 73 278
f 76 75 277
f 76 277 278
f 280 77 78
f 279 77 280
f 80 79 280
f 79 279 280
f 82 84 81
f 82 83 84
f 282 82 81
f 284 82 282
f 86 283 85
f 85 283 281
f 283 282 281
f 283 284 282
f 85 78 77
f 86 85 77
f 285 79 80
f 286 285 80
f 84 83 285
f 84 285 286
f 88 90 87
f 88 89 90
f 288 88 87
f 290 88 288
f 91 92 287
f 92 289 287
f 287 289 288
f 289 290 288
f 91 74 73
f 92 91 73
f 292 75 76
f 292 291 75
f 90 89 292
f 89 291 292
f 94 96 93
f 94 95 96
f 294 94 93
f 296 94 294
f 98 295 97
f 97 295 293
f 293 295 294
f 295 296 294
f 97 70 69
f 98 97 69
f 298 71 72
f 297 71 298
f 96 95 298
f 95 297 298
f 100 102 99
f 100 101 102
f 302 100 99
f 300 302 99
f 103 104 299
f 104 301 299
f 299 301 300
f 301 302 300
f 103 66 65
f 104 103 65
f 304 67 68
f 303 67 304
f 102 101 304
f 101 303 304
f 106 108 105
f 106 107 108
f 306 106 105
f 308 106 306
f 109 110 307
f 109 307 305
f 307 306 305
f 307 308 306
f 109 62 61
f 110 109 61
f 309 63 64
f 310 309 64
f 107 309 108
f 108 309 310
f 112 114 111
f 112 113 114
f 312 112 111
f 312 314 112
f 115 116 311
f 116 313 311
f 313 312 311
f 313 314 312
f 115 58 57
f 116 115 57
f 315 59 60
f 316 315 60
f 113 315 114
f 114 315 316
f 118 120 117
f 118 119 120
f 320 118 117
f 318 320 117
f 121 122 317
f 122 319 317
f 319 318 317
f 319 320 318
f 121 54 53
f 122 121 53
f 322 55 56
f 321 55 322
f 120 119 322
f 119 321 322
f 124 126 123
f 124 125 126
f 324 124 123
f 326 124 324
f 127 128 323
f 128 325 323
f 323 325 324
f 325 326 324
f 127 50 49
f 49 128 127
f 328 51 52
f 327 51 328
f 125 327 126
f 126 327 328
f 130 132 129
f 130 131 132
f 330 130 129
f 330 332 130
f 134 331 133
f 133 331 329
f 331 330 329
f 331 332 330
f 133 46 45
f 134 133 45
f 334 47 48
f 334 333 47
f 131 334 132
f 131 333 334
f 136 138 135
f 136 137 138
f 338 136 135
f 336 338 135
f 139 140 337
f 139 337 335
f 335 338 336
f 337 338 335
f 139 42 41
f 140 139 41
f 340 43 44
f 339 43 340
f 138 137 339
f 138 339 340
f 142 144 141
f 142 143 144
f 342 142 141
f 344 142 342
f 145 146 343
f 145 343 341
f 341 344 342
f 343 344 341
f 145 38 37
f 146 145 37
f 345 39 40
f 345 40 346
f 144 143 345
f 144 345 346
f 148 150 147
f 148 149 150
f 348 148 147
f 350 148 348
f 152 349 151
f 151 349 347
f 347 350 348
f 347 349 350
f 151 34 33
f 152 151 33
f 351 35 36
f 351 36 352
f 150 149 352
f 149 351 352
f 154 156 153
f 154 155 156
f 356 154 153
f 356 153 354
f 157 158 355
f 157 355 353
f 353 356 354
f 355 356 353
f 157 30 29
f 158 157 29
f 358 31 32
f 357 31 358
f 155 357 156
f 156 357 358
f 160 162 159
f 160 161 162
f 362 160 159
f 360 362 159
f 163 164 361
f 163 361 359
f 361 360 359
f 361 362 360
f 163 26 25
f 164 163 25
f 364 27 28
f 364 363 27
f 162 161 364
f 161 363 364
f 166 168 165
f 166 167 168
f 368 166 165
f 366 368 165
f 170 365 169
f 170 367 365
f 365 367 366
f 367 368 366
f 169 22 21
f 170 169 21
f 369 23 24
f 370 369 24
f 168 167 370
f 167 369 370
f 172 174 171
f 172 173 174
f 374 172 171
f 372 374 171
f 175 176 373
f 175 373 371
f 371 374 372
f 373 374 371
f 175 18 17
f 176 175 17
f 375 19 20
f 376 375 20
f 173 375 174
f 174 375 376
f 178 180 177
f 178 179 180
f 378 178 177
f 380 178 378
f 181 182 377
f 182 379 377
f 377 379 378
f 379 380 378
f 181 14 13
f 182 181 13
f 381 15 16
f 382 381 16
f 179 381 180
f 180 381 382
f 184 186 183
f 184 185 186
f 386 184 183
f 386 183 384
f 187 188 385
f 187 385 383
f 383 385 384
f 385 386 384
f 187 10 9
f 188 187 9
f 388 11 12
f 388 387 11
f 185 388 186
f 185 387 388
f 192 5 189
f 191 197 193
f 195 73 86
f 89 194 82
f 101 392 94
f 401 65 98
f 9 182 408
f 185 399 178
f 402 57 110
f 113 393 106
f 173 398 166
f 407 17 170
f 158 406 25
f 397 154 161
f 49 122 403
f 125 394 118
f 146 405 33
f 396 142 149
f 134 404 41
f 395 130 137
f 284 283 600
f 296 295 599
f 308 307 598
f 320 319 604
f 332 331 606
f 344 343 597
f 391 390 601
f 356 355 603
f 368 367 605
f 380 379 602
f 63 301 402
f 55 313 403
f 408 15 373
f 405 39 337
f 386 3 400
f 314 55 394
f 325 404 47
f 407 23 361
f 406 31 349
f 3 385 409
f 374 15 399
f 39 396 338
f 23 398 362
f 31 397 350
f 395 326 47
f 71 289 401
f 71 392 290
f 63 393 302
f 15 381 399
f 3 389 400
f 241 3 409
f 247 15 408
f 23 407 251
f 398 23 369
f 397 31 357
f 279 79 195
f 275 71 401
f 79 285 194
f 71 297 392
f 255 31 406
f 405 259 39
f 396 39 345
f 63 309 393
f 55 321 394
f 271 63 402
f 267 55 403
f 333 395 47
f 404 263 47
f 195 79 194
f 411 192 193
f 285 83 194
f 1 241 409
f 389 190 400
f 77 279 195
f 69 275 401
f 297 95 392
f 13 247 408
f 381 179 399
f 309 107 393
f 61 271 402
f 407 21 251
f 167 398 369
f 29 255 406
f 155 397 357
f 53 267 403
f 321 119 394
f 259 405 37
f 143 396 345
f 263 404 45
f 333 131 395
f 124 326 395
f 325 128 404
f 396 136 338
f 140 405 337
f 403 313 116
f 314 394 112
f 397 148 350
f 152 406 349
f 164 407 361
f 398 160 362
f 302 393 100
f 176 408 373
f 401 289 92
f 374 399 172
f 402 301 104
f 290 392 88
f 385 188 409
f 184 386 400
f 410 198 192
f 196 411 193
f 189 1 409
f 198 5 192
f 188 9 409
f 409 9 408
f 182 13 408
f 17 408 176
f 17 407 408
f 21 407 170
f 25 407 164
f 406 407 25
f 158 29 406
f 406 152 33
f 405 406 33
f 405 146 37
f 405 140 41
f 404 405 41
f 404 134 45
f 128 49 404
f 49 403 404
f 122 53 403
f 57 403 116
f 57 402 403
f 61 402 110
f 65 402 104
f 65 401 402
f 69 401 98
f 73 401 92
f 401 73 195
f 77 195 86
f 194 83 82
f 392 89 88
f 89 392 194
f 392 95 94
f 393 101 100
f 392 101 393
f 393 107 106
f 394 113 112
f 393 113 394
f 394 119 118
f 125 124 395
f 125 395 394
f 395 131 130
f 136 396 137
f 396 395 137
f 142 396 143
f 149 148 397
f 396 149 397
f 155 154 397
f 160 398 161
f 398 397 161
f 166 398 167
f 172 399 173
f 399 398 173
f 399 179 178
f 185 184 400
f 399 185 400
f 409 192 189
f 190 191 400
f 191 193 400
f 197 196 193
f 386 385 3
f 5 243 189
f 243 7 601
f 7 412 601
f 9 245 182
f 245 11 602
f 11 387 602
f 15 374 373
f 17 249 170
f 249 19 605
f 19 375 605
f 361 23 362
f 253 158 25
f 253 27 603
f 27 363 603
f 349 31 350
f 257 146 33
f 257 35 597
f 35 351 597
f 337 39 338
f 261 134 41
f 261 43 606
f 43 339 606
f 326 325 47
f 49 265 122
f 265 51 604
f 51 327 604
f 314 313 55
f 57 269 110
f 269 59 598
f 59 315 598
f 301 63 302
f 65 273 98
f 273 67 599
f 67 303 599
f 289 71 290
f 73 277 86
f 277 75 600
f 75 291 600
f 291 89 82
f 284 291 82
f 277 283 86
f 303 101 94
f 296 303 94
f 273 295 98
f 315 113 106
f 308 315 106
f 269 307 110
f 327 125 118
f 320 327 118
f 265 319 122
f 137 130 339
f 130 332 339
f 134 261 331
f 149 142 351
f 351 142 344
f 146 257 343
f 161 154 363
f 363 154 356
f 158 253 355
f 375 173 166
f 368 375 166
f 170 249 367
f 387 185 178
f 380 387 178
f 245 379 182
f 243 390 189
f 412 197 191
f 391 412 191
f 410 192 411
f 390 243 601
f 379 245 602
f 367 249 605
f 355 253 603
f 343 257 597
f 331 261 606
f 319 265 604
f 307 269 598
f 295 273 599
f 283 277 600
f 291 284 600
f 303 296 599
f 315 308 598
f 327 320 604
f 339 332 606
f 351 344 597
f 363 356 603
f 375 368 605
f 387 380 602
f 412 391 601
f 74 204 85
f 81 205 90
f 424 201 6
f 433 208 199
f 66 416 97
f 93 425 102
f 10 423 181
f 177 432 186
f 58 417 109
f 105 426 114
f 431 174 165
f 422 169 18
f 26 421 157
f 430 162 153
f 121 50 418
f 126 117 427
f 34 420 145
f 141 429 150
f 133 42 419
f 129 428 138
f 281 282 609
f 293 294 608
f 305 306 607
f 317 318 611
f 329 330 616
f 341 342 615
f 414 415 610
f 353 354 614
f 365 366 613
f 377 378 612
f 48 324 428
f 56 312 427
f 424 383 4
f 432 16 372
f 420 335 40
f 429 40 336
f 384 433 4
f 431 24 360
f 430 32 348
f 299 64 417
f 323 48 419
f 311 56 418
f 16 423 371
f 24 422 359
f 32 421 347
f 72 416 287
f 72 288 425
f 64 300 426
f 424 4 242
f 4 433 413
f 248 423 16
f 382 16 432
f 32 256 421
f 24 431 370
f 422 24 252
f 286 80 205
f 298 72 425
f 80 280 204
f 32 430 358
f 260 420 40
f 40 429 346
f 72 276 416
f 64 272 417
f 56 268 418
f 310 64 426
f 322 56 427
f 48 264 419
f 334 48 428
f 205 80 204
f 202 203 434
f 280 78 204
f 286 205 84
f 433 200 413
f 2 424 242
f 298 425 96
f 276 70 416
f 423 248 14
f 180 382 432
f 310 426 108
f 272 62 417
f 431 168 370
f 22 422 252
f 421 256 30
f 430 156 358
f 120 322 427
f 429 144 346
f 268 54 418
f 260 38 420
f 334 428 132
f 264 46 419
f 127 323 419
f 139 335 420
f 324 123 428
f 135 429 336
f 311 418 115
f 312 111 427
f 421 151 347
f 147 430 348
f 159 431 360
f 422 163 359
f 299 417 103
f 300 99 426
f 171 432 372
f 423 175 371
f 287 416 91
f 288 87 425
f 383 424 187
f 433 384 183
f 207 202 435
f 206 434 203
f 424 2 201
f 206 203 6
f 203 424 6
f 424 10 187
f 10 424 423
f 181 423 14
f 175 423 18
f 423 422 18
f 169 422 22
f 163 422 26
f 422 421 26
f 157 421 30
f 421 34 151
f 420 34 421
f 420 38 145
f 42 139 420
f 419 42 420
f 46 133 419
f 50 127 419
f 418 50 419
f 54 121 418
f 418 58 115
f 417 58 418
f 417 62 109
f 417 66 103
f 416 66 417
f 416 70 97
f 416 74 91
f 74 416 204
f 204 78 85
f 205 81 84
f 425 87 90
f 205 425 90
f 425 93 96
f 426 99 102
f 425 426 102
f 426 105 108
f 427 111 114
f 426 427 114
f 117 120 427
f 123 126 428
f 126 427 428
f 428 129 132
f 429 135 138
f 428 429 138
f 429 141 144
f 430 147 150
f 429 430 150
f 430 153 156
f 431 159 162
f 430 431 162
f 431 165 168
f 171 174 432
f 174 431 432
f 177 180 432
f 433 183 186
f 432 433 186
f 200 433 199
f 207 208 202
f 202 208 433
f 383 384 4
f 6 201 244
f 8 244 610
f 436 8 610
f 246 10 181
f 12 246 612
f 388 12 612
f 16 371 372
f 169 250 18
f 20 250 613
f 376 20 613
f 24 359 360
f 254 26 157
f 28 254 614
f 364 28 614
f 32 347 348
f 258 34 145
f 36 258 615
f 352 36 615
f 40 335 336
f 42 133 262
f 44 262 616
f 340 44 616
f 323 324 48
f 266 50 121
f 52 266 611
f 328 52 611
f 312 56 311
f 270 58 109
f 60 270 607
f 316 60 607
f 300 64 299
f 274 66 97
f 68 274 608
f 304 68 608
f 288 72 287
f 278 74 85
f 76 278 609
f 292 76 609
f 292 81 90
f 282 81 292
f 281 278 85
f 304 93 102
f 294 93 304
f 293 274 97
f 316 105 114
f 306 105 316
f 305 270 109
f 328 117 126
f 318 117 328
f 317 266 121
f 129 138 340
f 330 129 340
f 133 329 262
f 141 150 352
f 141 352 342
f 258 145 341
f 153 162 364
f 153 364 354
f 254 157 353
f 165 174 376
f 165 376 366
f 250 169 365
f 388 177 186
f 177 388 378
f 377 246 181
f 208 436 199
f 436 415 199
f 244 201 414
f 435 202 434
f 244 414 610
f 246 377 612
f 250 365 613
f 254 353 614
f 258 341 615
f 262 329 616
f 266 317 611
f 270 305 607
f 274 293 608
f 278 281 609
f 282 292 609
f 294 304 608
f 306 316 607
f 318 328 611
f 330 340 616
f 342 352 615
f 354 364 614
f 366 376 613
f 378 388 612
f 415 436 610
f 392 438 437
f 400 447 446
f 400 193 447
f 194 392 437
f 437 438 209
f 447 210 446
f 393 439 392
f 392 439 438
f 393 394 439
f 394 395 440
f 394 440 439
f 396 442 395
f 395 441 440
f 395 442 441
f 396 397 443
f 396 443 442
f 398 444 397
f 397 444 443
f 398 399 445
f 398 445 444
f 400 446 399
f 399 446 445
f 209 448 212
f 438 448 209
f 456 210 211
f 210 456 446
f 449 438 439
f 449 448 438
f 450 439 440
f 450 449 439
f 451 440 441
f 451 450 440
f 452 441 442
f 452 451 441
f 452 442 443
f 454 443 444
f 452 443 453
f 454 453 443
f 445 454 444
f 455 445 446
f 455 454 445
f 455 446 456
f 458 467 448
f 466 456 457
f 457 456 211
f 467 212 448
f 213 466 457
f 214 467 458
f 458 448 449
f 459 449 450
f 459 458 449
f 461 450 451
f 460 459 450
f 460 450 461
f 462 451 452
f 461 451 462
f 463 452 453
f 463 462 452
f 464 453 454
f 463 453 464
f 465 454 455
f 465 464 454
f 465 455 456
f 465 456 466
f 476 213 215
f 213 476 466
f 214 468 216
f 468 214 458
f 469 458 459
f 469 468 458
f 460 469 459
f 471 460 461
f 470 469 460
f 471 470 460
f 472 461 462
f 472 471 461
f 473 462 463
f 473 472 462
f 474 463 464
f 474 473 463
f 475 464 465
f 475 474 464
f 475 465 466
f 475 466 476
f 485 215 217
f 215 485 476
f 216 477 218
f 477 216 468
f 477 468 469
f 469 470 479
f 477 469 478
f 469 479 478
f 480 470 471
f 470 480 479
f 481 471 472
f 481 480 471
f 482 472 473
f 482 481 472
f 483 473 474
f 483 482 473
f 475 483 474
f 484 475 476
f 484 483 475
f 484 476 485
f 494 217 219
f 217 494 485
f 218 486 220
f 477 486 218
f 487 477 478
f 487 486 477
f 488 478 479
f 488 487 478
f 489 479 480
f 489 488 479
f 490 480 481
f 490 489 480
f 491 481 482
f 491 490 481
f 492 482 483
f 492 491 482
f 493 483 484
f 493 492 483
f 493 484 485
f 493 485 494
f 486 496 495
f 494 505 504
f 219 505 494
f 486 495 220
f 495 496 221
f 505 222 504
f 487 496 486
f 487 488 498
f 487 497 496
f 487 498 497
f 489 499 488
f 488 499 498
f 490 500 489
f 489 500 499
f 490 491 501
f 490 501 500
f 491 492 502
f 501 491 502
f 492 493 502
f 493 494 503
f 493 503 502
f 494 504 503
f 221 506 224
f 506 221 496
f 222 223 514
f 222 514 504
f 507 496 497
f 507 506 496
f 508 497 498
f 508 507 497
f 509 498 499
f 509 508 498
f 510 499 500
f 510 509 499
f 510 500 501
f 512 501 502
f 510 501 511
f 512 511 501
f 513 502 503
f 513 512 502
f 513 503 504
f 513 504 514
f 425 516 506
f 433 514 515
f 202 433 515
f 425 205 516
f 515 514 223
f 516 224 506
f 425 507 426
f 425 506 507
f 427 426 507
f 427 508 428
f 427 507 508
f 428 509 429
f 428 508 509
f 430 429 510
f 429 509 510
f 430 512 431
f 430 510 511
f 511 512 430
f 431 513 432
f 431 512 513
f 433 432 514
f 432 513 514
f 518 527 416
f 526 424 517
f 517 424 203
f 527 204 416
f 225 526 517
f 226 527 518
f 518 416 417
f 519 417 418
f 518 417 519
f 520 418 419
f 519 418 520
f 522 419 420
f 520 419 521
f 522 521 419
f 523 420 421
f 523 522 420
f 524 421 422
f 523 421 524
f 524 422 423
f 526 423 424
f 524 423 525
f 526 525 423
f 536 225 227
f 225 536 526
f 226 528 228
f 528 226 518
f 519 528 518
f 530 519 520
f 529 528 519
f 530 529 519
f 531 520 521
f 531 530 520
f 532 521 522
f 532 531 521
f 532 522 523
f 523 524 534
f 532 523 533
f 533 523 534
f 535 524 525
f 535 534 524
f 535 525 526
f 535 526 536
f 528 538 537
f 536 547 546
f 227 547 536
f 228 528 537
f 537 538 229
f 547 230 546
f 529 539 528
f 528 539 538
f 530 540 529
f 529 540 539
f 530 531 541
f 530 541 540
f 531 532 541
f 533 542 532
f 532 542 541
f 533 534 543
f 533 543 542
f 535 545 534
f 534 544 543
f 534 545 544
f 535 536 546
f 535 546 545
f 229 548 232
f 548 229 538
f 556 230 231
f 230 556 546
f 549 538 539
f 549 548 538
f 549 539 540
f 540 541 550
f 549 540 550
f 552 541 542
f 550 541 551
f 541 552 551
f 552 542 543
f 554 543 544
f 552 543 553
f 554 553 543
f 555 544 545
f 555 554 544
f 555 545 546
f 555 546 556
f 565 231 233
f 565 556 231
f 232 557 234
f 548 557 232
f 558 548 549
f 558 557 548
f 559 549 550
f 559 558 549
f 560 550 551
f 560 559 550
f 561 551 552
f 561 560 551
f 553 561 552
f 553 554 563
f 562 561 553
f 562 553 563
f 564 554 555
f 564 563 554
f 556 564 555
f 565 564 556
f 574 233 235
f 233 574 565
f 234 566 236
f 566 234 557
f 558 566 557
f 568 558 559
f 567 566 558
f 568 567 558
f 569 559 560
f 569 568 559
f 569 560 561
f 570 561 562
f 569 561 570
f 572 562 563
f 570 562 571
f 572 571 562
f 573 563 564
f 573 572 563
f 573 564 565
f 573 565 574
f 576 585 566
f 584 574 575
f 575 574 235
f 585 236 566
f 237 584 575
f 576 238 585
f 577 566 567
f 577 576 566
f 577 567 568
f 579 568 569
f 577 568 578
f 579 578 568
f 580 569 570
f 579 569 580
f 581 570 571
f 581 580 570
f 581 571 572
f 583 572 573
f 582 581 572
f 583 582 572
f 584 573 574
f 584 583 573
f 594 237 239
f 237 594 584
f 238 586 240
f 586 238 576
f 586 576 577
f 587 577 578
f 586 577 587
f 589 578 579
f 587 578 588
f 578 589 588
f 590 579 580
f 590 589 579
f 590 580 581
f 592 581 582
f 590 581 591
f 592 591 581
f 593 582 583
f 593 592 582
f 593 583 584
f 593 584 594
f 586 401 595
f 594 596 409
f 596 192 409
f 595 401 195
f 594 239 596
f 240 586 595
f 586 402 401
f 588 403 402
f 587 402 586
f 587 588 402
f 403 588 404
f 590 405 404
f 588 589 404
f 589 590 404
f 591 406 405
f 591 405 590
f 406 591 407
f 593 408 407
f 591 592 407
f 592 593 407
f 593 409 408
f 593 594 409
f 467 214 495
f 585 537 236
f 437 209 516
f 527 240 595
f 221 467 495
f 537 585 228
f 214 220 495
f 236 537 229
f 212 467 221
f 209 224 516
f 240 527 226
f 585 238 228
f 204 527 595
f 205 437 516
f 195 204 595
f 194 437 205
f 194 204 195
f 204 194 205
f 212 224 209
f 212 221 224
f 214 216 220
f 220 216 218
f 228 240 226
f 238 240 228
f 232 234 229
f 234 236 229
f 547 575 235
f 457 505 213
f 515 210 447
f 239 517 596
f 222 505 457
f 547 227 575
f 213 505 219
f 235 230 547
f 211 222 457
f 223 210 515
f 225 517 239
f 575 227 237
f 596 517 203
f 447 202 515
f 203 192 596
f 193 202 447
f 193 192 203
f 203 202 193
f 211 210 223
f 223 222 211
f 219 215 213
f 217 215 219
f 239 227 225
f 237 227 239
f 231 230 233
f 233 230 235
f 436 7 8
f 436 412 7
f 197 436 208
f 197 412 436
f 435 196 207
f 411 196 435
f 206 198 434
f 198 410 434
f 410 411 434
f 434 411 435
f 206 6 5
f 198 206 5
f 196 197 208
f 196 208 207
f 389 3 4
f 413 389 4
f 200 190 413
f 190 389 413
f 201 2 1
f 189 201 1
f 201 189 414
f 189 390 414
f 391 191 199
f 391 199 415
f 414 390 391
f 414 391 415
f 191 190 200
f 191 200 199
